# xmcd
# Track frame offsets:
# 150
# 18482
# 30480
# 45720
# 59825
# 70062
# 87552
# 102847
# 114285
# 136330
# 155435
# 171102
# 183202
#
# Disc length: 2671 seconds
# Revision: 1
# Processed by: cddbd v1.4PL0 Copyright (c) Steve Scherf et al.
# Submitted via: VisiTrax 2.9.5.180 - For more info visit www.synapsa.com
#
DISCID=a90a6d0d
DTITLE=Dan Roberts - cowhand.com
DYEAR=1900
DGENRE=Country
TTITLE0=cowhand.com
TTITLE1=If They Only Knew A Coyboy
TTITLE2=Stallions
TTITLE3=The Grip
TTITLE4=You Can't Make A Cowboy Sing The Blues
TTITLE5=One Gate From Home
TTITLE6=A Trucker's Just A Cowboy
TTITLE7=Wranglers, Ropers, Resistols
TTITLE8=Roped Into Love
TTITLE9=The Cowboy Song
TTITLE10=Horses In Heaven
TTITLE11=Triflin' State Of Mind
TTITLE12=Everybody's Hocked A Saddle
EXTD=
EXTT0=
EXTT1=
EXTT2=
EXTT3=
EXTT4=
EXTT5=
EXTT6=
EXTT7=
EXTT8=
EXTT9=
EXTT10=
EXTT11=
EXTT12=
PLAYORDER=
